<svg width="209" height="19" viewBox="0 0 209 19" fill="none" xmlns="http://www.w3.org/2000/svg">
<path d="M5.56818 18.5H0.454545L9.11364 1.04545H15.5909L18.4545 18.5H13.3409L11.6364 5.85227H11.5L5.56818 18.5ZM5.77273 11.6136H15.3864L14.7727 15.1591H5.15909L5.77273 11.6136ZM27.772 1.04545L24.8743 18.5H20.1357L23.0334 1.04545H27.772ZM34.799 1.04545H40.6967L43.1172 10.9318H43.3217L49.0149 1.04545H54.9126L52.0149 18.5H47.3786L49.049 8.40909H48.9126L43.3899 18.3636H40.5945L38.3786 8.34091H38.2422L36.5376 18.5H31.9013L34.799 1.04545ZM58.7947 18.5H53.6811L62.3402 1.04545H68.8175L71.6811 18.5H66.5675L64.8629 5.85227H64.7266L58.7947 18.5ZM58.9993 11.6136H68.6129L67.9993 15.1591H58.3857L58.9993 11.6136ZM73.3622 18.5L76.2599 1.04545H83.794C85.0895 1.04545 86.1804 1.30114 87.0668 1.8125C87.9531 2.32386 88.5895 3.04261 88.9759 3.96875C89.3622 4.89489 89.4531 5.97727 89.2486 7.21591C89.044 8.47727 88.5895 9.56534 87.8849 10.4801C87.1861 11.3892 86.294 12.0909 85.2088 12.5852C84.1293 13.0739 82.919 13.3182 81.5781 13.3182H77.0781L77.6918 9.63636H81.2372C81.8054 9.63636 82.3054 9.53977 82.7372 9.34659C83.169 9.14773 83.5185 8.86932 83.7855 8.51136C84.0526 8.14773 84.2259 7.71591 84.3054 7.21591C84.3849 6.71591 84.348 6.28977 84.1946 5.9375C84.0469 5.57955 83.7912 5.30682 83.4276 5.11932C83.0696 4.92614 82.6122 4.82954 82.0554 4.82954H80.3849L78.1009 18.5H73.3622ZM99.8679 18.5L95.6918 11.4432H95.027L93.8509 18.5H89.1122L92.0099 1.04545H96.7486L95.6577 7.625H96.2713L102.374 1.04545H108.339L100.311 9.43182L105.817 18.5H99.8679ZM107.089 18.5L109.987 1.04545H122.566L121.918 4.86364H114.077L113.6 7.86364H120.793L120.146 11.6818H112.952L112.475 14.6818H120.282L119.634 18.5H107.089ZM123.791 4.86364L124.439 1.04545H139.609L138.962 4.86364H133.712L131.462 18.5H126.791L129.041 4.86364H123.791ZM155.982 10.0795C155.663 11.9773 155.033 13.5682 154.089 14.8523C153.146 16.1364 152.001 17.1051 150.655 17.7585C149.308 18.4119 147.868 18.7386 146.334 18.7386C144.697 18.7386 143.277 18.3835 142.072 17.6733C140.868 16.9631 139.99 15.9233 139.439 14.554C138.888 13.1847 138.777 11.5114 139.107 9.53409C139.413 7.63636 140.038 6.03977 140.982 4.74432C141.925 3.44886 143.075 2.46875 144.433 1.80398C145.791 1.1392 147.243 0.806818 148.788 0.806818C150.413 0.806818 151.825 1.16477 153.024 1.88068C154.229 2.59659 155.104 3.64489 155.649 5.02557C156.2 6.40625 156.311 8.09091 155.982 10.0795ZM151.209 9.53409C151.368 8.53409 151.379 7.69318 151.243 7.01136C151.107 6.32386 150.82 5.80682 150.382 5.46023C149.945 5.10795 149.357 4.93182 148.618 4.93182C147.777 4.93182 147.033 5.13636 146.385 5.54545C145.737 5.95455 145.2 6.54261 144.774 7.30966C144.348 8.0767 144.05 9 143.879 10.0795C143.697 11.0909 143.68 11.9318 143.828 12.6023C143.982 13.2727 144.283 13.7756 144.732 14.1108C145.186 14.446 145.777 14.6136 146.504 14.6136C147.334 14.6136 148.067 14.4148 148.703 14.017C149.345 13.6193 149.876 13.0426 150.297 12.2869C150.723 11.5312 151.027 10.6136 151.209 9.53409ZM156.197 18.5L156.81 14.8523L157.288 14.7841C157.89 14.6932 158.415 14.4432 158.864 14.0341C159.319 13.6193 159.722 12.9631 160.075 12.0653C160.433 11.1619 160.765 9.93182 161.072 8.375L162.572 1.04545H175.219L172.322 18.5H167.754L170.038 4.72727H166.322L165.129 10.2159C164.697 12.25 164.157 13.8722 163.509 15.0824C162.867 16.2926 162.049 17.1648 161.055 17.6989C160.066 18.233 158.833 18.5 157.356 18.5H156.197ZM192.872 10.0795C192.554 11.9773 191.923 13.5682 190.98 14.8523C190.037 16.1364 188.892 17.1051 187.545 17.7585C186.199 18.4119 184.759 18.7386 183.224 18.7386C181.588 18.7386 180.168 18.3835 178.963 17.6733C177.759 16.9631 176.881 15.9233 176.33 14.554C175.778 13.1847 175.668 11.5114 175.997 9.53409C176.304 7.63636 176.929 6.03977 177.872 4.74432C178.815 3.44886 179.966 2.46875 181.324 1.80398C182.682 1.1392 184.134 0.806818 185.679 0.806818C187.304 0.806818 188.716 1.16477 189.915 1.88068C191.119 2.59659 191.994 3.64489 192.54 5.02557C193.091 6.40625 193.202 8.09091 192.872 10.0795ZM188.099 9.53409C188.259 8.53409 188.27 7.69318 188.134 7.01136C187.997 6.32386 187.71 5.80682 187.273 5.46023C186.835 5.10795 186.247 4.93182 185.509 4.93182C184.668 4.93182 183.923 5.13636 183.276 5.54545C182.628 5.95455 182.091 6.54261 181.665 7.30966C181.239 8.0767 180.94 9 180.77 10.0795C180.588 11.0909 180.571 11.9318 180.719 12.6023C180.872 13.2727 181.173 13.7756 181.622 14.1108C182.077 14.446 182.668 14.6136 183.395 14.6136C184.224 14.6136 184.957 14.4148 185.594 14.017C186.236 13.6193 186.767 13.0426 187.188 12.2869C187.614 11.5312 187.918 10.6136 188.099 9.53409ZM208.837 1.04545L208.19 4.86364H200.656L198.406 18.5H193.667L196.565 1.04545H208.837Z" fill="white"/>
</svg>
