<svg width="429" height="23" viewBox="0 0 429 23" fill="none" xmlns="http://www.w3.org/2000/svg">
<path d="M10.7898 18.5L6.61364 11.4432H5.94886L4.77273 18.5H0.0340909L2.93182 1.04545H7.67045L6.57955 7.625H7.19318L13.2955 1.04545H19.2614L11.233 9.43182L16.7386 18.5H10.7898ZM20.4993 18.7386L21.1129 15.0568H21.9652C22.4652 15.0568 22.8658 15.017 23.1669 14.9375C23.4737 14.8523 23.7237 14.7045 23.9169 14.4943C24.1158 14.2784 24.3061 13.9773 24.4879 13.5909L24.7607 13.0795L20.1925 1.04545H25.0334L27.522 8.13636L31.4766 1.04545H36.2493L27.9993 14.6818C27.5447 15.3977 27.0391 16.0653 26.4822 16.6847C25.9254 17.2983 25.2777 17.7955 24.5391 18.1761C23.8004 18.5511 22.9311 18.7386 21.9311 18.7386H20.4993ZM34.8857 18.5L37.7834 1.04545H45.3175C46.6129 1.04545 47.7038 1.30114 48.5902 1.8125C49.4766 2.32386 50.1129 3.04261 50.4993 3.96875C50.8857 4.89489 50.9766 5.97727 50.772 7.21591C50.5675 8.47727 50.1129 9.56534 49.4084 10.4801C48.7095 11.3892 47.8175 12.0909 46.7322 12.5852C45.6527 13.0739 44.4425 13.3182 43.1016 13.3182H38.6016L39.2152 9.63636H42.7607C43.3288 9.63636 43.8288 9.53977 44.2607 9.34659C44.6925 9.14773 45.0419 8.86932 45.3089 8.51136C45.576 8.14773 45.7493 7.71591 45.8288 7.21591C45.9084 6.71591 45.8714 6.28977 45.718 5.9375C45.5703 5.57955 45.3146 5.30682 44.951 5.11932C44.593 4.92614 44.1357 4.82954 43.5788 4.82954H41.9084L39.6243 18.5H34.8857ZM68.7209 7.59091H63.9822C64.0163 7.1875 63.9936 6.82386 63.9141 6.5C63.8345 6.17614 63.6982 5.89773 63.505 5.66477C63.3118 5.42614 63.0589 5.24432 62.7464 5.11932C62.4339 4.99432 62.0618 4.93182 61.63 4.93182C60.8004 4.93182 60.0589 5.1392 59.4055 5.55398C58.7521 5.96307 58.2095 6.55114 57.7777 7.31818C57.3459 8.07955 57.0391 8.98864 56.8572 10.0455C56.6982 11.0682 56.6925 11.9176 56.8402 12.5938C56.9936 13.2699 57.2919 13.7756 57.7351 14.1108C58.1839 14.446 58.7663 14.6136 59.4822 14.6136C59.9595 14.6136 60.397 14.5568 60.7947 14.4432C61.1982 14.3295 61.5561 14.1676 61.8686 13.9574C62.1868 13.7415 62.4567 13.4858 62.6783 13.1903C62.9055 12.8892 63.0788 12.5568 63.1982 12.1932H67.9709C67.7891 12.9318 67.4652 13.6875 66.9993 14.4602C66.5334 15.2273 65.9311 15.9347 65.1925 16.5824C64.4538 17.2244 63.5845 17.7443 62.5845 18.142C61.5845 18.5398 60.4595 18.7386 59.2095 18.7386C57.5732 18.7386 56.1612 18.3807 54.9737 17.6648C53.7919 16.9489 52.9339 15.9034 52.3999 14.5284C51.8714 13.1534 51.7663 11.4773 52.0845 9.5C52.4027 7.59091 53.0305 5.99148 53.968 4.7017C54.9055 3.41193 56.0447 2.44034 57.3857 1.78693C58.7266 1.13352 60.1527 0.806818 61.6641 0.806818C62.8061 0.806818 63.8288 0.957386 64.7322 1.25852C65.6413 1.55966 66.4055 2 67.0249 2.57954C67.6499 3.15341 68.1101 3.8608 68.4055 4.7017C68.701 5.54261 68.8061 6.50568 68.7209 7.59091ZM85.5213 0.227272L76.4531 21.125H72.4645L81.5327 0.227272H85.5213ZM87.2727 22.6932L88.5682 14.8523H89.7955C90.2443 14.6023 90.6705 14.25 91.0739 13.7955C91.483 13.3409 91.875 12.6903 92.25 11.8438C92.625 10.9972 92.9886 9.86364 93.3409 8.44318L95.1477 1.04545H107.489L105.205 14.8523H107.045L105.75 22.6932H101.182L101.864 18.5H92.5227L91.8409 22.6932H87.2727ZM95.2159 14.8523H100.636L102.273 4.86364H98.7614L97.9091 8.44318C97.6534 9.51136 97.3778 10.446 97.0824 11.2472C96.7869 12.0426 96.4801 12.7358 96.1619 13.3267C95.8494 13.9119 95.5341 14.4205 95.2159 14.8523ZM110.932 1.04545H115.67L114.153 10.1818H114.29L122.011 1.04545H126.034L123.136 18.5H118.398L119.915 9.32955H119.812L111.989 18.5H108.034L110.932 1.04545ZM125.378 18.5L128.276 1.04545H135.81C137.105 1.04545 138.196 1.30114 139.082 1.8125C139.969 2.32386 140.605 3.04261 140.991 3.96875C141.378 4.89489 141.469 5.97727 141.264 7.21591C141.06 8.47727 140.605 9.56534 139.901 10.4801C139.202 11.3892 138.31 12.0909 137.224 12.5852C136.145 13.0739 134.935 13.3182 133.594 13.3182H129.094L129.707 9.63636H133.253C133.821 9.63636 134.321 9.53977 134.753 9.34659C135.185 9.14773 135.534 8.86932 135.801 8.51136C136.068 8.14773 136.241 7.71591 136.321 7.21591C136.401 6.71591 136.364 6.28977 136.21 5.9375C136.063 5.57955 135.807 5.30682 135.443 5.11932C135.085 4.92614 134.628 4.82954 134.071 4.82954H132.401L130.116 18.5H125.378ZM141.128 18.5L144.026 1.04545H156.605L155.957 4.86364H148.116L147.639 7.86364H154.832L154.185 11.6818H146.991L146.514 14.6818H154.321L153.673 18.5H141.128ZM166.813 18.5L162.637 11.4432H161.972L160.796 18.5H156.058L158.955 1.04545H163.694L162.603 7.625H163.217L169.319 1.04545H175.285L167.256 9.43182L172.762 18.5H166.813ZM175.807 4.86364L176.455 1.04545H191.625L190.977 4.86364H185.727L183.477 18.5H178.807L181.057 4.86364H175.807ZM207.997 10.0795C207.679 11.9773 207.048 13.5682 206.105 14.8523C205.162 16.1364 204.017 17.1051 202.67 17.7585C201.324 18.4119 199.884 18.7386 198.349 18.7386C196.713 18.7386 195.293 18.3835 194.088 17.6733C192.884 16.9631 192.006 15.9233 191.455 14.554C190.903 13.1847 190.793 11.5114 191.122 9.53409C191.429 7.63636 192.054 6.03977 192.997 4.74432C193.94 3.44886 195.091 2.46875 196.449 1.80398C197.807 1.1392 199.259 0.806818 200.804 0.806818C202.429 0.806818 203.841 1.16477 205.04 1.88068C206.244 2.59659 207.119 3.64489 207.665 5.02557C208.216 6.40625 208.327 8.09091 207.997 10.0795ZM203.224 9.53409C203.384 8.53409 203.395 7.69318 203.259 7.01136C203.122 6.32386 202.835 5.80682 202.398 5.46023C201.96 5.10795 201.372 4.93182 200.634 4.93182C199.793 4.93182 199.048 5.13636 198.401 5.54545C197.753 5.95455 197.216 6.54261 196.79 7.30966C196.364 8.0767 196.065 9 195.895 10.0795C195.713 11.0909 195.696 11.9318 195.844 12.6023C195.997 13.2727 196.298 13.7756 196.747 14.1108C197.202 14.446 197.793 14.6136 198.52 14.6136C199.349 14.6136 200.082 14.4148 200.719 14.017C201.361 13.6193 201.892 13.0426 202.312 12.2869C202.739 11.5312 203.043 10.6136 203.224 9.53409ZM208.792 18.5L211.69 1.04545H219.224C220.519 1.04545 221.61 1.30114 222.496 1.8125C223.383 2.32386 224.019 3.04261 224.406 3.96875C224.792 4.89489 224.883 5.97727 224.678 7.21591C224.474 8.47727 224.019 9.56534 223.315 10.4801C222.616 11.3892 221.724 12.0909 220.638 12.5852C219.559 13.0739 218.349 13.3182 217.008 13.3182H212.508L213.121 9.63636H216.667C217.235 9.63636 217.735 9.53977 218.167 9.34659C218.599 9.14773 218.948 8.86932 219.215 8.51136C219.482 8.14773 219.656 7.71591 219.735 7.21591C219.815 6.71591 219.778 6.28977 219.624 5.9375C219.477 5.57955 219.221 5.30682 218.857 5.11932C218.499 4.92614 218.042 4.82954 217.485 4.82954H215.815L213.531 18.5H208.792ZM248.244 1.04545L245.346 18.5H240.675L242.96 4.79545H237.062L234.778 18.5H230.107L233.005 1.04545H248.244ZM266.685 10.0795C266.366 11.9773 265.736 13.5682 264.793 14.8523C263.849 16.1364 262.705 17.1051 261.358 17.7585C260.011 18.4119 258.571 18.7386 257.037 18.7386C255.401 18.7386 253.98 18.3835 252.776 17.6733C251.571 16.9631 250.693 15.9233 250.142 14.554C249.591 13.1847 249.48 11.5114 249.81 9.53409C250.116 7.63636 250.741 6.03977 251.685 4.74432C252.628 3.44886 253.778 2.46875 255.136 1.80398C256.494 1.1392 257.946 0.806818 259.491 0.806818C261.116 0.806818 262.528 1.16477 263.727 1.88068C264.932 2.59659 265.807 3.64489 266.352 5.02557C266.903 6.40625 267.014 8.09091 266.685 10.0795ZM261.912 9.53409C262.071 8.53409 262.082 7.69318 261.946 7.01136C261.81 6.32386 261.523 5.80682 261.085 5.46023C260.648 5.10795 260.06 4.93182 259.321 4.93182C258.48 4.93182 257.736 5.13636 257.088 5.54545C256.44 5.95455 255.903 6.54261 255.477 7.30966C255.051 8.0767 254.753 9 254.582 10.0795C254.401 11.0909 254.384 11.9318 254.531 12.6023C254.685 13.2727 254.986 13.7756 255.435 14.1108C255.889 14.446 256.48 14.6136 257.207 14.6136C258.037 14.6136 258.77 14.4148 259.406 14.017C260.048 13.6193 260.58 13.0426 261 12.2869C261.426 11.5312 261.73 10.6136 261.912 9.53409ZM275.158 1.04545H281.056L283.477 10.9318H283.681L289.374 1.04545H295.272L292.374 18.5H287.738L289.408 8.40909H289.272L283.749 18.3636H280.954L278.738 8.34091H278.602L276.897 18.5H272.261L275.158 1.04545ZM299.154 18.5H294.04L302.7 1.04545H309.177L312.04 18.5H306.927L305.222 5.85227H305.086L299.154 18.5ZM299.359 11.6136H308.972L308.359 15.1591H298.745L299.359 11.6136ZM313.722 18.5L316.619 1.04545H324.153C325.449 1.04545 326.54 1.30114 327.426 1.8125C328.313 2.32386 328.949 3.04261 329.335 3.96875C329.722 4.89489 329.813 5.97727 329.608 7.21591C329.403 8.47727 328.949 9.56534 328.244 10.4801C327.545 11.3892 326.653 12.0909 325.568 12.5852C324.489 13.0739 323.278 13.3182 321.938 13.3182H317.438L318.051 9.63636H321.597C322.165 9.63636 322.665 9.53977 323.097 9.34659C323.528 9.14773 323.878 8.86932 324.145 8.51136C324.412 8.14773 324.585 7.71591 324.665 7.21591C324.744 6.71591 324.707 6.28977 324.554 5.9375C324.406 5.57955 324.151 5.30682 323.787 5.11932C323.429 4.92614 322.972 4.82954 322.415 4.82954H320.744L318.46 18.5H313.722ZM329.472 18.5L332.369 1.04545H344.949L344.301 4.86364H336.46L335.983 7.86364H343.176L342.528 11.6818H335.335L334.858 14.6818H342.665L342.017 18.5H329.472ZM346.174 4.86364L346.822 1.04545H361.992L361.344 4.86364H356.094L353.844 18.5H349.174L351.424 4.86364H346.174ZM363.776 1.04545H368.514L366.997 10.1818H367.134L374.855 1.04545H378.878L375.98 18.5H371.241L372.759 9.32955H372.656L364.832 18.5H360.878L363.776 1.04545ZM378.222 18.5L381.119 1.04545H385.858L384.733 7.86364H391.006L392.131 1.04545H396.869L393.972 18.5H389.233L390.358 11.6818H384.085L382.96 18.5H378.222ZM411.392 1.04545L410.744 4.86364H403.21L400.96 18.5H396.222L399.119 1.04545H411.392ZM412.749 18.7386L413.363 15.0568H414.215C414.715 15.0568 415.116 15.017 415.417 14.9375C415.724 14.8523 415.974 14.7045 416.167 14.4943C416.366 14.2784 416.556 13.9773 416.738 13.5909L417.011 13.0795L412.442 1.04545H417.283L419.772 8.13636L423.727 1.04545H428.499L420.249 14.6818C419.795 15.3977 419.289 16.0653 418.732 16.6847C418.175 17.2983 417.528 17.7955 416.789 18.1761C416.05 18.5511 415.181 18.7386 414.181 18.7386H412.749Z" fill="white"/>
</svg>
