<svg width="140" height="19" viewBox="0 0 140 19" fill="none" xmlns="http://www.w3.org/2000/svg">
<path d="M0.215909 1.04545H5.5L7.71591 8.13636H7.88636L12.4545 1.04545H17.7386L9.35227 13.0114L8.43182 18.5H3.72727L4.64773 13.0114L0.215909 1.04545ZM29.6129 1.04545H34.3516L32.4936 12.2273C32.2777 13.5568 31.772 14.7074 30.9766 15.679C30.1868 16.6449 29.1811 17.392 27.9595 17.9205C26.7379 18.4432 25.38 18.7045 23.8857 18.7045C22.38 18.7045 21.1072 18.4432 20.0675 17.9205C19.0277 17.392 18.272 16.6449 17.8004 15.679C17.3345 14.7074 17.2095 13.5568 17.4254 12.2273L19.2834 1.04545H24.022L22.2322 11.8182C22.147 12.358 22.1896 12.8381 22.3601 13.2585C22.5305 13.679 22.8061 14.0114 23.1868 14.2557C23.5675 14.4943 24.0277 14.6136 24.5675 14.6136C25.1129 14.6136 25.6158 14.4943 26.076 14.2557C26.5419 14.0114 26.9283 13.679 27.2351 13.2585C27.5419 12.8381 27.7379 12.358 27.8232 11.8182L29.6129 1.04545ZM33.706 18.5L36.6037 1.04545H44.1378C45.4332 1.04545 46.527 1.28125 47.419 1.75284C48.3111 2.22443 48.9531 2.90341 49.3452 3.78977C49.7372 4.67614 49.831 5.73864 49.6264 6.97727C49.4219 8.22727 48.9702 9.28125 48.2713 10.1392C47.5781 10.9915 46.6946 11.6392 45.6207 12.0824C44.5526 12.5199 43.3537 12.7386 42.0241 12.7386H37.5241L38.1378 9.05682H41.6832C42.2401 9.05682 42.7287 8.98864 43.1491 8.85227C43.5696 8.71023 43.9105 8.48864 44.1719 8.1875C44.4332 7.88068 44.6037 7.47727 44.6832 6.97727C44.7628 6.47727 44.723 6.07102 44.5639 5.75852C44.4048 5.44034 44.1406 5.20739 43.7713 5.05966C43.402 4.90625 42.9446 4.82954 42.3991 4.82954H40.7287L38.4446 18.5H33.706ZM45.2628 10.4886L48.2969 18.5H43.1491L40.2173 10.4886H45.2628ZM51.3331 1.04545H56.6172L58.8331 8.13636H59.0036L63.5717 1.04545H68.8558L60.4695 13.0114L59.549 18.5H54.8445L55.7649 13.0114L51.3331 1.04545ZM83.6705 6.5C83.7216 5.9375 83.5852 5.49716 83.2614 5.17898C82.9375 4.85511 82.392 4.69318 81.625 4.69318C81.1364 4.69318 80.7273 4.75 80.3977 4.86364C80.0739 4.97727 79.821 5.13352 79.6392 5.33239C79.4631 5.53125 79.3523 5.76136 79.3068 6.02273C79.2557 6.22727 79.2585 6.41477 79.3153 6.58523C79.3778 6.75 79.4943 6.90057 79.6648 7.03693C79.8409 7.1733 80.071 7.29545 80.3551 7.40341C80.6449 7.51136 80.9886 7.60795 81.3864 7.69318L82.75 8C83.6818 8.20455 84.4631 8.47443 85.0938 8.80966C85.7301 9.1392 86.2301 9.53125 86.5938 9.9858C86.9574 10.4403 87.196 10.9489 87.3097 11.5114C87.429 12.0739 87.4318 12.6875 87.3182 13.3523C87.125 14.5 86.679 15.4716 85.9801 16.267C85.2813 17.0625 84.3693 17.6676 83.2443 18.0824C82.1193 18.4972 80.8182 18.7045 79.3409 18.7045C77.8295 18.7045 76.5455 18.4801 75.4886 18.0312C74.4375 17.5767 73.6761 16.8835 73.2045 15.9517C72.7386 15.0142 72.625 13.8182 72.8636 12.3636H77.3636C77.2955 12.8977 77.3523 13.3466 77.5341 13.7102C77.7159 14.0739 78.0085 14.3494 78.4119 14.5369C78.8153 14.7244 79.3182 14.8182 79.9205 14.8182C80.4318 14.8182 80.8693 14.7557 81.233 14.6307C81.5966 14.5057 81.8835 14.3324 82.0938 14.1108C82.304 13.8892 82.4318 13.6364 82.4773 13.3523C82.5227 13.0909 82.4773 12.858 82.3409 12.6534C82.2045 12.4489 81.9574 12.2642 81.5994 12.0994C81.2415 11.9347 80.75 11.7841 80.125 11.6477L78.4545 11.2727C76.9716 10.9318 75.8523 10.3693 75.0966 9.58523C74.3409 8.80114 74.0739 7.72727 74.2955 6.36364C74.4773 5.25 74.9347 4.27841 75.6676 3.44886C76.4063 2.61364 77.3438 1.96591 78.4801 1.50568C79.6222 1.03977 80.8864 0.806818 82.2727 0.806818C83.6818 0.806818 84.8608 1.04261 85.8097 1.5142C86.7642 1.9858 87.4489 2.64773 87.8636 3.5C88.2841 4.35227 88.3977 5.35227 88.2045 6.5H83.6705ZM95.9048 1.04545L93.0071 18.5H88.2685L91.1662 1.04545H95.9048ZM95.2528 18.5L98.1506 1.04545H102.889L101.764 7.86364H108.037L109.162 1.04545H113.901L111.003 18.5H106.264L107.389 11.6818H101.116L99.9915 18.5H95.2528ZM117.787 18.5H112.673L121.332 1.04545H127.81L130.673 18.5H125.56L123.855 5.85227H123.719L117.787 18.5ZM117.991 11.6136H127.605L126.991 15.1591H117.378L117.991 11.6136ZM139.991 1.04545L137.093 18.5H132.354L135.252 1.04545H139.991Z" fill="white"/>
</svg>
